HIERARCHY
ROOT Hips
{
    OFFSET 0.000000 0.000000 0.000000
    CHANNELS 6 Xposition Yposition Zposition Zrotation Xrotation Yrotation
    JOINT Spine
    {
        OFFSET -0.000000 7.236184 0.000000
        CHANNELS 3 Zrotation Xrotation Yrotation
        JOINT Spine1
        {
            OFFSET -0.000000 20.420147 0.000000
            CHANNELS 3 Zrotation Xrotation Yrotation
            JOINT Neck
            {
                OFFSET -0.000000 20.336288 1.848754
                CHANNELS 3 Zrotation Xrotation Yrotation
                JOINT Head
                {
                    OFFSET -0.000000 12.354461 -1.764923
                    CHANNELS 3 Zrotation Xrotation Yrotation
                    End Site
                    {
                        OFFSET -0.000000 22.061537 0.000000
                    }
                }
            }
            JOINT LeftShoulder
            {
                OFFSET 3.573296 18.396038 -0.314103
                CHANNELS 3 Zrotation Xrotation Yrotation
                JOINT LeftArm
                {
                    OFFSET 10.880760 0.000000 0.000000
                    CHANNELS 3 Zrotation Xrotation Yrotation
                    JOINT LeftForeArm
                    {
                        OFFSET 27.185530 0.000000 0.000000
                        CHANNELS 3 Zrotation Xrotation Yrotation
                        JOINT LeftHand
                        {
                            OFFSET 27.825975 0.000000 0.000000
                            CHANNELS 3 Zrotation Xrotation Yrotation
                            End Site
                            {
                                OFFSET 13.236923 0.000000 0.000000
                            }
                        }
                    }
                }
            }
            JOINT RightShoulder
            {
                OFFSET -3.474926 18.396038 -0.314103
                CHANNELS 3 Zrotation Xrotation Yrotation
                JOINT RightArm
                {
                    OFFSET -10.880760 0.000000 0.000000
                    CHANNELS 3 Zrotation Xrotation Yrotation
                    JOINT RightForeArm
                    {
                        OFFSET -27.185530 0.000000 0.000000
                        CHANNELS 3 Zrotation Xrotation Yrotation
                        JOINT RightHand
                        {
                            OFFSET -27.825975 0.000000 0.000000
                            CHANNELS 3 Zrotation Xrotation Yrotation
                            End Site
                            {
                                OFFSET -13.236923 0.000000 0.000000
                            }
                        }
                    }
                }
            }
        }
    }
    JOINT LeftUpLeg
    {
        OFFSET 8.824615 0.000000 0.000000
        CHANNELS 3 Zrotation Xrotation Yrotation
        JOINT LeftLeg
        {
            OFFSET -0.000000 -35.111282 0.000000
            CHANNELS 3 Zrotation Xrotation Yrotation
            JOINT LeftFoot
            {
                OFFSET -0.000000 -42.324711 0.000000
                CHANNELS 3 Zrotation Xrotation Yrotation
                JOINT LeftToeBase
                {
                    OFFSET -0.000000 -5.735999 13.236923
                    CHANNELS 3 Zrotation Xrotation Yrotation
                    End Site
                    {
                        OFFSET -0.000000 0.000000 3.529846
                    }
                }
            }
        }
    }
    JOINT RightUpLeg
    {
        OFFSET -8.824615 0.000000 0.000000
        CHANNELS 3 Zrotation Xrotation Yrotation
        JOINT RightLeg
        {
            OFFSET -0.000000 -35.111282 0.000000
            CHANNELS 3 Zrotation Xrotation Yrotation
            JOINT RightFoot
            {
                OFFSET -0.000000 -42.324711 0.000000
                CHANNELS 3 Zrotation Xrotation Yrotation
                JOINT RightToeBase
                {
                    OFFSET -0.000000 -5.735999 13.236923
                    CHANNELS 3 Zrotation Xrotation Yrotation
                    End Site
                    {
                        OFFSET -0.000000 0.000000 3.529846
                    }
                }
            }
        }
    }
}
MOTION
Frames:    12
Frame Time:    0.008333
-5.589121    80.194275    101.732491    -0.062238    -5.185417    -176.763931    -1.108058    -13.292008    0.362377    -0.109358    9.860882    0.501060    3.490964    3.665284    -1.726743    3.841325    -5.578895    -1.470664    2.687444    17.830839    -6.353209    -40.401615    46.284096    -45.792889    0.086235    -3.373816    -17.889084    13.959909    -3.257505    0.840748    4.427591    20.435406    -0.447461    36.196552    47.109207    44.530884    -3.936399    -8.930368    16.582081    -16.065714    -7.812545    -3.938290    10.940686    -9.681170    3.780183    -1.598279    13.573244    -2.802484    -9.863459    -7.382781    -8.545738    -0.127629    -0.283778    0.141545    -11.598160    -4.683580    -0.801293    3.570302    6.512956    5.655218    7.521508    -4.876717    -12.010665    -0.795244    -0.917133    0.861207    
-5.587607    80.192711    101.721527    -0.064564    -5.184770    -176.759369    -1.115249    -13.289802    0.360662    -0.119866    9.874002    0.500988    3.495838    3.661534    -1.725928    3.838222    -5.571612    -1.471323    2.694683    17.827560    -6.355478    -40.433571    46.280922    -45.764290    0.109317    -3.449739    -17.876348    14.151981    -3.331005    0.819839    4.429073    20.434492    -0.453697    36.253849    47.113533    44.451260    -3.962571    -8.975167    16.588581    -16.065571    -7.850853    -3.957031    10.937642    -9.680960    3.782353    -1.593234    13.586515    -2.815507    -9.853797    -7.398731    -8.539492    -0.124999    -0.284974    0.138628    -11.597491    -4.690946    -0.803835    3.566440    6.547431    5.664464    7.521727    -4.904135    -12.019279    -0.798891    -0.918504    0.865158    
-5.586079    80.191162    101.710617    -0.066843    -5.184049    -176.754974    -1.122132    -13.287293    0.358786    -0.130475    9.886771    0.500862    3.500339    3.658124    -1.724863    3.835209    -5.564816    -1.471636    2.701344    17.824497    -6.357554    -40.466831    46.277473    -45.733810    0.133148    -3.527128    -17.863853    14.343358    -3.405982    0.798219    4.430520    20.433569    -0.459453    36.311100    47.117619    44.371407    -3.988741    -9.020339    16.595484    -16.065145    -7.889649    -3.974861    10.934695    -9.680779    3.784690    -1.588207    13.599977    -2.828285    -9.843843    -7.414636    -8.533441    -0.122360    -0.285839    0.135701    -11.596727    -4.698430    -0.805554    3.562630    6.582123    5.673702    7.521733    -4.931735    -12.028504    -0.802557    -0.920233    0.869131    
-5.584587    80.189598    101.699921    -0.069413    -5.183597    -176.750992    -1.128743    -13.284663    0.356840    -0.141405    9.898841    0.500580    3.504973    3.654843    -1.723272    3.831216    -5.558160    -1.471626    2.707632    17.822229    -6.359163    -40.502098    46.273441    -45.700760    0.158332    -3.606714    -17.851938    14.531875    -3.483291    0.774923    4.431561    20.432913    -0.464511    36.368069    47.121044    44.292099    -4.014717    -9.065794    16.603130    -16.064030    -7.929004    -3.990928    10.931309    -9.681006    3.787391    -1.582900    13.613523    -2.840257    -9.833848    -7.430179    -8.528162    -0.119850    -0.286345    0.132918    -11.596291    -4.706845    -0.807314    3.558780    6.617517    5.683492    7.521523    -4.959420    -12.037963    -0.806157    -0.921733    0.873031    
-5.583032    80.188019    101.689316    -0.071818    -5.182883    -176.747391    -1.134552    -13.281304    0.354692    -0.152820    9.910397    0.500146    3.509387    3.651397    -1.721130    3.826795    -5.551518    -1.471020    2.713161    17.820477    -6.360382    -40.541924    46.268364    -45.662327    0.186006    -3.690187    -17.840452    14.717899    -3.564534    0.749033    4.432597    20.432316    -0.468931    36.424541    47.124203    44.212601    -4.041018    -9.112622    16.612028    -16.062174    -7.969911    -4.005174    10.928140    -9.681208    3.790736    -1.577332    13.627541    -2.851769    -9.823404    -7.445654    -8.523602    -0.117321    -0.286534    0.130114    -11.595557    -4.715675    -0.807814    3.554946    6.653892    5.693974    7.520743    -4.987733    -12.048875    -0.809723    -0.923356    0.876895    
-5.581453    80.186417    101.678802    -0.074384    -5.182163    -176.744339    -1.139990    -13.277786    0.352584    -0.164470    9.922056    0.499541    3.513700    3.647606    -1.718414    3.821596    -5.545149    -1.470032    2.718614    17.819441    -6.361508    -40.588589    46.261074    -45.617252    0.216730    -3.778158    -17.829422    14.899039    -3.650236    0.720482    4.433156    20.431822    -0.473151    36.480736    47.126144    44.133369    -4.067124    -9.160525    16.622370    -16.059416    -8.012222    -4.017194    10.924709    -9.681559    3.794678    -1.571428    13.641883    -2.862417    -9.812903    -7.460827    -8.520020    -0.114913    -0.286515    0.127443    -11.594837    -4.725448    -0.807895    3.550901    6.691697    5.705651    7.519505    -5.016792    -12.060875    -0.813366    -0.925075    0.880842    
-5.579840    80.184807    101.668373    -0.077171    -5.181543    -176.741898    -1.145138    -13.274429    0.350302    -0.176501    9.934316    0.498980    3.518333    3.643490    -1.715151    3.815193    -5.539395    -1.468667    2.724097    17.818913    -6.362690    -40.645290    46.250332    -45.562668    0.251671    -3.870956    -17.818829    15.071945    -3.740561    0.689831    4.433444    20.431112    -0.477475    36.536686    47.126762    44.053974    -4.092979    -9.209589    16.634584    -16.055462    -8.056023    -4.026949    10.921014    -9.682081    3.799187    -1.565178    13.656531    -2.872086    -9.802579    -7.475758    -8.517513    -0.112642    -0.286810    0.124924    -11.594310    -4.736230    -0.806630    3.546980    6.730850    5.718387    7.517604    -5.046606    -12.074733    -0.817052    -0.926451    0.884836    
-5.578133    80.183174    101.657890    -0.079996    -5.180804    -176.740112    -1.149973    -13.271025    0.348049    -0.188719    9.947450    0.498421    3.523203    3.637992    -1.711421    3.807658    -5.533120    -1.467192    2.730148    17.819141    -6.363722    -40.715717    46.234154    -45.496414    0.291609    -3.968825    -17.808317    15.233573    -3.835546    0.657511    4.433278    20.430124    -0.482356    36.592892    47.125759    43.973984    -4.118676    -9.260039    16.648874    -16.049627    -8.101559    -4.034248    10.917337    -9.682548    3.804468    -1.558652    13.671648    -2.881641    -9.793267    -7.490605    -8.515553    -0.110721    -0.287376    0.122793    -11.593604    -4.747828    -0.804407    3.542946    6.771483    5.732513    7.515043    -5.077266    -12.090253    -0.820763    -0.927899    0.888856    
-5.576341    80.181541    101.647339    -0.083034    -5.180106    -176.738968    -1.154677    -13.268061    0.345803    -0.201216    9.962093    0.497776    3.528497    3.631177    -1.707290    3.798830    -5.526852    -1.465624    2.736819    17.819948    -6.364661    -40.803864    46.210571    -45.415073    0.337925    -4.071308    -17.797770    15.378612    -3.934455    0.624421    4.432850    20.429148    -0.488176    36.650249    47.121445    43.892986    -4.143774    -9.311158    16.665100    -16.041086    -8.148299    -4.038606    10.913439    -9.682955    3.810296    -1.551808    13.686997    -2.890454    -9.785214    -7.505300    -8.514577    -0.109186    -0.288459    0.121092    -11.592917    -4.760373    -0.801291    3.538733    6.813712    5.747833    7.511771    -5.108829    -12.107220    -0.824487    -0.929023    0.892891    
-5.574461    80.179932    101.636795    -0.086205    -5.179533    -176.738556    -1.159257    -13.265628    0.343559    -0.213719    9.977992    0.497112    3.533891    3.622741    -1.703008    3.789227    -5.520156    -1.464044    2.744286    17.821436    -6.364882    -40.911903    46.177795    -45.317574    0.390470    -4.175862    -17.786926    15.500766    -4.034639    0.591603    4.431844    20.428373    -0.495133    36.708672    47.113537    43.811565    -4.168055    -9.362429    16.683216    -16.028845    -8.195791    -4.039899    10.909559    -9.683350    3.816629    -1.544894    13.702529    -2.899247    -9.779082    -7.519917    -8.513885    -0.108185    -0.289922    0.119982    -11.592337    -4.773597    -0.797445    3.534725    6.856513    5.764140    7.507537    -5.140491    -12.125331    -0.828259    -0.929803    0.896977    
-5.572425    80.178307    101.625893    -0.089606    -5.179157    -176.738861    -1.163833    -13.263823    0.341202    -0.226656    9.995665    0.496356    3.539704    3.612404    -1.698420    3.778354    -5.512706    -1.462602    2.752344    17.824240    -6.363808    -41.046795    46.131351    -45.198212    0.450919    -4.284068    -17.774729    15.598381    -4.137521    0.558336    4.430663    20.427893    -0.503315    36.772022    47.099724    43.725609    -4.191815    -9.414650    16.703251    -16.011608    -8.244946    -4.037431    10.905571    -9.683674    3.823788    -1.537752    13.718448    -2.908332    -9.774295    -7.534863    -8.513458    -0.107682    -0.292131    0.119424    -11.591736    -4.787688    -0.793285    3.530541    6.900736    5.781336    7.502401    -5.172840    -12.144048    -0.832170    -0.930005    0.901213    
-5.570188    80.176712    101.614746    -0.092789    -5.178672    -176.739853    -1.168012    -13.262181    0.338675    -0.239737    10.014504    0.495604    3.545280    3.600368    -1.693880    3.767341    -5.504828    -1.461242    2.760922    17.828129    -6.360474    -41.210499    46.069332    -45.055763    0.518181    -4.393907    -17.761143    15.665573    -4.241165    0.525149    4.429068    20.428165    -0.513295    36.841888    47.078228    43.635025    -4.214605    -9.466354    16.724592    -15.988650    -8.294484    -4.030449    10.902197    -9.683580    3.832025    -1.530668    13.734570    -2.918248    -9.770847    -7.550069    -8.513003    -0.107593    -0.294726    0.119326    -11.590627    -4.801802    -0.788933    3.526243    6.944959    5.798403    7.496180    -5.204824    -12.162287    -0.836134    -0.929474    0.905505    
